<?xml version="1.0" encoding="utf-8"?>
<!-- Uploaded to: SVG Repo, www.svgrepo.com, Generator: SVG Repo Mixer Tools -->
<svg width="800px" height="800px" viewBox="0 0 1024 1024" class="icon"  version="1.1" xmlns="http://www.w3.org/2000/svg"><path d="M912.3 221h-41v-93c0-23.4-19.8-42.4-44.3-42.4H195c-24.5 0-44.3 19-44.3 42.4v93h-41c-26.5 0-48.1 20.6-48.1 46v117.6c0 25.4 21.5 46 48.1 46h41v93c0 23.4 19.8 42.4 44.3 42.4h632c24.5 0 44.3-19 44.3-42.4v-93h41c26.5 0 48.1-20.6 48.1-46V266.9c0-25.3-21.6-45.9-48.1-45.9z" fill="#FCD170" /><path d="M827 575.9H195c-29.9 0-54.3-23.5-54.3-52.4v-83h-31c-32 0-58.1-25.1-58.1-56V266.9c0-30.9 26-56 58.1-56h31v-83c0-28.9 24.4-52.4 54.3-52.4h632c29.9 0 54.3 23.5 54.3 52.4v83h31c32 0 58.1 25.1 58.1 56v117.6c0 30.9-26 56-58.1 56h-31v83c0 28.9-24.4 52.4-54.3 52.4zM109.7 231c-21 0-38.1 16.1-38.1 36v117.6c0 19.8 17.1 36 38.1 36h41c5.5 0 10 4.5 10 10v93c0 17.8 15.4 32.4 34.3 32.4h632c18.9 0 34.3-14.5 34.3-32.4v-93c0-5.5 4.5-10 10-10h41c21 0 38.1-16.1 38.1-36V266.9c0-19.8-17.1-36-38.1-36h-41c-5.5 0-10-4.5-10-10v-93c0-17.8-15.4-32.4-34.3-32.4H195c-18.9 0-34.3 14.5-34.3 32.4v93c0 5.5-4.5 10-10 10h-41z" fill="" /><path d="M752.7 671.8C752.7 855.7 644.5 931 511 931s-241.7-75.3-241.7-259.1S511 191.5 511 191.5 752.7 488 752.7 671.8z" fill="#FFFFFF" /><path d="M511 1011c-5.5 0-10-4.5-10-10V401c0-5.5 4.5-10 10-10s10 4.5 10 10v600c0 5.5-4.5 10-10 10z" fill="#FFFFFF" /><path d="M714 667.7c0 160.2-90.9 225.8-203.1 225.8s-203.1-65.6-203.1-225.8S511 249 511 249s203 258.5 203 418.7z" fill="#60C13D" /><path d="M511 903.5c-61.8 0-113.9-19.3-150.6-55.7C319 806.7 298 746.1 298 667.7c0-37.8 10.9-83.9 32.5-136.8 17-41.8 40.8-88.2 70.5-137.8 50.5-84.2 101.7-149.6 102.3-150.3 1.9-2.4 4.8-3.8 7.9-3.8s6 1.4 7.9 3.8c0.5 0.7 51.7 66.1 102.3 150.3 29.7 49.6 53.5 95.9 70.5 137.8 21.5 52.9 32.5 98.9 32.5 136.8 0 78.4-21 139-62.4 180.1-37.2 36.4-89.3 55.7-151 55.7z m0-638c-16.2 21.5-54.8 74.3-93.1 138.1-45.6 76.1-100 183.6-100 264.1 0 72.9 19 128.7 56.5 165.9 33 32.7 80.2 49.9 136.6 49.9 56.4 0 103.6-17.3 136.6-49.9 37.5-37.2 56.5-93 56.5-165.9 0-80.4-54.4-188-100-264.1-38.3-63.8-77-116.6-93.1-138.1z" fill="" /><path d="M511 1011c-5.5 0-10-4.5-10-10V401c0-5.5 4.5-10 10-10s10 4.5 10 10v600c0 5.5-4.5 10-10 10z" fill="" /><path d="M511 633.4c-2.7 0-5.5-1.1-7.4-3.3L399 513.7c-3.7-4.1-3.4-10.4 0.8-14.1 4.1-3.7 10.4-3.4 14.1 0.8l104.6 116.4c3.7 4.1 3.4 10.4-0.8 14.1-2 1.7-4.3 2.5-6.7 2.5zM511 832.1c-2.8 0-5.6-1.2-7.6-3.5L356.4 656c-3.6-4.2-3.1-10.5 1.1-14.1 4.2-3.6 10.5-3.1 14.1 1.1l147 172.6c3.6 4.2 3.1 10.5-1.1 14.1-1.9 1.6-4.2 2.4-6.5 2.4zM511 517c-2.6 0-5.1-1-7.1-2.9-3.9-3.9-3.9-10.2 0-14.1l70.9-70.9c3.9-3.9 10.2-3.9 14.1 0 3.9 3.9 3.9 10.2 0 14.1L518 514.1c-1.9 1.9-4.5 2.9-7 2.9zM517.9 725.8c-2.7 0-5.5-1.1-7.4-3.3-3.7-4.1-3.3-10.4 0.8-14.1l103.3-92.7c4.1-3.7 10.4-3.3 14.1 0.8 3.7 4.1 3.3 10.4-0.8 14.1l-103.3 92.7c-2 1.6-4.4 2.5-6.7 2.5z" fill="" /></svg>
